<?xml version="1.0" standalone="no"?>
<!DOCTYPE svg PUBLIC "-//W3C//DTD SVG 20010904//EN"
 "http://www.w3.org/TR/2001/REC-SVG-20010904/DTD/svg10.dtd">
<svg version="1.0" xmlns="http://www.w3.org/2000/svg"
 width="300.000000pt" height="300.000000pt" viewBox="0 0 300.000000 300.000000"
 preserveAspectRatio="xMidYMid meet">
<metadata>
Created by potrace 1.10, written by Peter Selinger 2001-2011
</metadata>
<g transform="translate(0.000000,300.000000) scale(0.100000,-0.100000)"
fill="#000000" stroke="none">
<path d="M1130 2526 c-143 -94 -249 -245 -291 -416 -30 -119 -23 -309 15 -424
38 -113 125 -298 260 -551 130 -246 376 -731 376 -742 0 -5 -51 -8 -114 -8
-109 0 -139 -6 -122 -22 12 -12 457 -10 464 2 3 6 2 7 -3 3 -4 -4 -14 0 -23 8
-12 13 -34 15 -102 12 l-88 -3 114 225 c62 124 159 311 215 415 151 282 274
538 310 645 28 81 33 113 37 218 3 75 0 147 -8 185 -13 68 -66 213 -81 222 -5
3 0 -15 11 -41 12 -26 22 -54 24 -63 2 -9 6 -23 9 -31 30 -76 27 -299 -6 -425
-14 -51 -149 -365 -168 -391 -5 -6 -28 -48 -52 -95 -24 -46 -61 -115 -81 -154
-98 -181 -289 -560 -306 -607 l-19 -53 -1 99 0 98 -49 82 c-179 299 -454 831
-501 971 -70 208 -61 378 31 556 69 132 171 227 307 285 45 19 50 23 22 18
-54 -10 -175 -74 -231 -122 -121 -106 -203 -309 -202 -499 1 -135 45 -264 193
-559 66 -130 123 -241 128 -247 5 -7 31 -52 57 -102 27 -49 59 -107 72 -127
12 -21 23 -39 23 -42 0 -2 31 -56 68 -120 41 -68 68 -125 66 -138 -1 -13 -3
-32 -3 -42 -2 -32 -14 -12 -124 204 -57 113 -114 223 -127 245 -59 105 -247
473 -285 560 -36 82 -74 199 -83 260 -14 97 -6 235 18 315 47 158 156 313 278
397 28 20 52 38 52 40 0 9 -21 -2 -80 -41z"/>
<path d="M1922 2384 c75 -78 114 -143 143 -236 47 -148 43 -296 -11 -457 -45
-135 -302 -634 -502 -976 -39 -67 -45 -84 -23 -71 8 6 125 190 171 271 10 17
43 75 76 130 51 88 290 555 293 573 1 4 10 34 21 67 57 174 44 377 -35 535
-32 62 -91 139 -145 185 -40 35 -39 32 12 -21z"/>
<path d="M1401 2404 c-163 -44 -273 -168 -303 -342 -30 -178 61 -351 227 -433
66 -32 76 -34 176 -34 101 0 108 1 181 38 212 105 293 354 183 567 -23 44
-101 127 -147 156 -93 59 -210 77 -317 48z m251 -51 c80 -38 156 -111 194
-188 26 -54 29 -70 29 -155 0 -86 -3 -102 -32 -163 -72 -153 -221 -239 -378
-217 -80 11 -96 15 -141 38 -208 108 -261 385 -109 572 88 108 181 152 307
146 48 -2 84 -11 130 -33z"/>
<path d="M1445 2354 c-94 -20 -163 -62 -222 -135 -71 -90 -90 -257 -40 -355
53 -105 123 -162 234 -192 121 -32 226 -7 330 81 100 84 129 166 108 306 -28
183 -233 331 -410 295z m171 -51 c70 -24 164 -119 190 -193 58 -171 -12 -323
-186 -403 -58 -26 -72 -29 -140 -25 -128 7 -221 73 -277 195 -22 48 -25 65
-21 132 8 129 70 226 180 280 51 26 73 31 133 31 40 0 93 -7 121 -17z"/>
</g>
</svg>
